<svg width="42" height="42" viewBox="0 0 42 42" fill="none" xmlns="http://www.w3.org/2000/svg">
<path d="M39.2422 7.24023L34.042 2.04492C33.6752 1.67648 33.2392 1.38415 32.759 1.18472C32.2789 0.985288 31.7641 0.882688 31.2441 0.882813C30.1846 0.882813 29.1885 1.29785 28.4414 2.04492L22.8457 7.64062C22.4773 8.00745 22.1849 8.44346 21.9855 8.9236C21.7861 9.40375 21.6835 9.91856 21.6836 10.4385C21.6836 11.498 22.0986 12.4941 22.8457 13.2412L26.9375 17.333C25.9797 19.4441 24.6481 21.3647 23.0068 23.002C21.3697 24.6472 19.4494 25.9837 17.3379 26.9473L13.2461 22.8555C12.8793 22.487 12.4433 22.1947 11.9631 21.9953C11.483 21.7958 10.9682 21.6932 10.4482 21.6934C9.38867 21.6934 8.39258 22.1084 7.64551 22.8555L2.04492 28.4463C1.67603 28.8138 1.38345 29.2506 1.18401 29.7316C0.984568 30.2126 0.882207 30.7283 0.882815 31.249C0.882815 32.3086 1.29785 33.3047 2.04492 34.0518L7.23535 39.2422C8.42676 40.4385 10.0723 41.1172 11.7617 41.1172C12.1182 41.1172 12.46 41.0879 12.7969 41.0293C19.3789 39.9453 25.9072 36.4443 31.1758 31.1807C36.4395 25.9219 39.9355 19.3984 41.0342 12.7969C41.3662 10.7803 40.6973 8.70508 39.2422 7.24023Z" fill="#90A3A7"/>
</svg>
